Coordinates
version=1
nRows=34
nColumns=33
inDegrees=yes

Units are S.I. units (second, meters, Newtons, ...)
Angles are in degrees.

endheader
time	ground_thorax_rot_x	ground_thorax_rot_y	ground_thorax_rot_z	ground_thorax_tx	ground_thorax_ty	ground_thorax_tz	clav_prot_r	clav_elev_r	scapula_abduction_r	scapula_elevation_r	scapula_upward_rot_r	scapula_winging_r	shoulder_elv_r	plane_of_elev_r	axial_rot_r	elbow_flexion_r	pro_sup_r	wrist_flex_r	wrist_dev_r	clav_prot_l	clav_elev_l	scapula_abduction_l	scapula_elevation_l	scapula_upward_rot_l	scapula_winging_l	shoulder_elv_l	plane_of_elev_l	axial_rot_l	elbow_flexion_l	pro_sup_l	wrist_flex_l	wrist_dev_l	
6.7600	30.590558	26.570626	37.647873	-54.801528	777.052450	13.188737	15.433541	38.055811	35.538057	45.000000	-45.000000	-2237.618809	-2632.355570	147.417519	180.000000	1083.571346	51.199795	19.854455	15.852615	10.499842	-45.000000	-37.668682	45.000000	-44.997897	1170.131325	-4253.620979	22.875886	-15.521329	1080.539235	41.646420	11.968404	-19.473010	
6.7700	30.691868	26.286300	37.471617	-54.338924	777.848063	13.357019	15.511228	38.049402	35.642067	45.000000	-45.000000	-2237.585407	-2632.357966	147.361239	180.000000	1083.683251	51.316101	19.900697	15.768822	10.597727	-45.000000	-37.719907	45.000000	-44.996232	1169.952752	-4253.622276	22.867321	-15.800907	1080.622019	41.675629	11.802102	-19.484029	
6.7800	30.776880	26.021547	37.299093	-54.021753	778.669345	13.527288	15.647143	37.970096	35.781519	45.000000	-45.000000	-2237.568943	-2632.392912	147.367730	180.000000	1083.808156	51.425630	19.960355	15.667612	10.717407	-45.000000	-37.841097	45.000000	-44.993251	1169.781041	-4253.616152	22.830568	-16.094049	1080.752675	41.682211	11.607022	-19.462614	
6.7900	30.886680	25.724723	37.116683	-54.016481	779.563610	13.713525	15.709179	37.952531	35.910862	45.000000	-45.000000	-2237.594814	-2632.367057	147.311978	180.000000	1083.957462	51.550071	20.037695	15.580429	10.745242	-45.000000	-37.884651	45.000000	-44.987908	1169.665493	-4253.567055	22.828328	-16.445157	1080.890898	41.656893	11.448836	-19.514378	
6.8000	31.005713	25.416532	36.924037	-54.348161	780.520362	13.903030	15.748844	37.956774	36.047207	45.000000	-45.000000	-2237.665718	-2632.310767	147.242236	180.000000	1084.136886	51.662486	20.135358	15.496325	10.730700	-45.000000	-37.911372	45.000000	-44.978346	1169.599945	-4253.480555	22.843775	-16.814698	1081.058973	41.576746	11.307070	-19.602683	
6.8100	31.141980	25.086032	36.698542	-55.068074	781.534858	14.092075	15.784719	37.989479	36.201171	45.000000	-45.000000	-2237.778622	-2632.221487	147.163348	180.000000	1084.349732	51.739791	20.251777	15.413287	10.681443	-45.000000	-37.936067	45.000000	-44.961196	1169.583351	-4253.353035	22.884859	-17.167415	1081.260094	41.421229	11.182374	-19.719251	
6.8200	31.284003	24.751857	36.450812	-56.182862	782.600918	14.261425	15.823410	38.039691	36.367845	45.000000	-45.000000	-2237.941302	-2632.108502	147.085230	180.000000	1084.591087	51.755898	20.383639	15.332685	10.620208	-45.000000	-37.972208	45.000000	-44.930534	1169.619039	-4253.186989	22.951068	-17.455002	1081.487839	41.174667	11.077429	-19.851569	
6.8300	31.424532	24.421814	36.178305	-57.681258	783.713866	14.393551	15.887339	38.093971	36.551244	45.000000	-45.000000	-2238.142128	-2631.978340	147.027903	180.000000	1084.850483	51.683951	20.521794	15.251002	10.571131	-45.000000	-38.056974	45.000000	-44.875444	1169.702218	-4252.991477	23.031196	-17.643627	1081.739887	40.831624	10.989651	-19.979248	
6.8400	31.551464	24.110637	35.905136	-59.545699	784.884777	14.468599	15.956456	38.149020	36.729146	45.000000	-45.000000	-2238.381934	-2631.826911	146.980985	180.000000	1085.118398	51.512793	20.659929	15.172440	10.535810	-45.000000	-38.174933	45.000000	-44.777228	1169.843240	-4252.769458	23.120317	-17.717482	1081.996019	40.398890	10.930171	-20.103479	
6.8500	31.674649	23.802056	35.606497	-61.762918	786.125327	14.482830	16.039586	38.194739	36.909178	45.000000	-45.000000	-2238.645682	-2631.653479	146.945205	180.000000	1085.389396	51.237309	20.792228	15.091785	10.517595	-45.000000	-38.339646	45.000000	-44.599991	1170.036218	-4252.532840	23.209199	-17.690132	1082.249600	39.893778	10.897508	-20.215815	
6.8600	31.803028	23.487748	35.263832	-64.313505	787.456782	14.430284	16.115930	38.215784	37.090814	45.000000	-45.000000	-2238.938855	-2631.458380	146.906437	180.000000	1085.662751	50.869803	20.922694	15.008269	10.510741	-45.000000	-38.543946	45.000000	-44.286147	1170.285456	-4252.296785	23.292781	-17.587671	1082.488573	39.340306	10.894438	-20.321415	
6.8700	31.959781	23.131314	34.825429	-67.182159	788.894257	14.318683	16.183714	38.224502	37.289342	45.000000	-45.000000	-2239.243793	-2631.235760	146.857855	180.000000	1085.943094	50.425634	21.053160	14.915150	10.508429	-45.000000	-38.800947	45.000000	-43.789240	1170.585091	-4252.072684	23.364189	-17.451944	1082.717541	38.760625	10.916417	-20.424288	
6.8800	32.156876	22.718430	34.272834	-70.350022	790.452269	14.156717	16.227950	38.228256	37.505141	45.000000	-45.000000	-2239.560075	-2630.981954	146.787068	180.000000	1086.234385	49.930232	21.192186	14.810538	10.499157	-45.000000	-39.085019	45.000000	-43.096071	1170.928934	-4251.860766	23.429003	-17.309562	1082.935622	38.169118	10.959562	-20.530209	
6.8900	32.397565	22.246784	33.612640	-73.801564	792.136670	13.960488	16.258583	38.226218	37.740190	45.000000	-45.000000	-2239.885324	-2630.700736	146.692079	180.000000	1086.528774	49.396666	21.337331	14.692028	10.486937	-45.000000	-39.376400	45.000000	-42.278099	1171.304350	-4251.652341	23.498348	-17.191475	1083.151237	37.568363	11.017735	-20.640085	
6.9000	32.669025	21.741734	32.886309	-77.503027	793.956927	13.735759	16.257973	38.217897	37.984023	45.000000	-45.000000	-2240.231876	-2630.397983	146.577825	180.000000	1086.814086	48.843221	21.494609	14.565818	10.467677	-45.000000	-39.643511	45.000000	-41.403620	1171.705851	-4251.438303	23.576250	-17.114674	1083.367029	36.956424	11.086815	-20.757340	
6.9100	32.953458	21.219401	32.126130	-81.429287	795.913651	13.487423	16.245042	38.200075	38.223101	45.000000	-45.000000	-2240.588943	-2630.078820	146.462303	180.000000	1087.085311	48.280911	21.652482	14.423468	10.438521	-45.000000	-39.898632	45.000000	-40.524042	1172.133645	-4251.208436	23.647612	-17.102843	1083.601082	36.325940	11.160370	-20.880982	
6.9200	33.214549	20.736326	31.437538	-85.482334	798.015912	13.216940	16.181970	38.194695	38.420540	45.000000	-45.000000	-2240.962348	-2629.746050	146.365808	180.000000	1087.324503	47.740148	21.826708	14.279873	10.371374	-45.000000	-40.082644	45.000000	-39.728937	1172.600284	-4250.950154	23.697761	-17.206905	1083.849654	35.683368	11.234788	-21.015868	
6.9300	33.456915	20.284760	30.803190	-89.684207	800.239421	12.927260	16.112628	38.162711	38.583209	45.000000	-45.000000	-2241.349446	-2629.405918	146.286821	180.000000	1087.535299	47.223230	21.991481	14.119197	10.294663	-45.000000	-40.218179	45.000000	-39.041421	1173.089080	-4250.661323	23.724197	-17.442158	1084.123740	35.002497	11.300461	-21.151759	
6.9400	33.699074	19.832170	30.168638	-94.042954	802.561236	12.621527	16.027009	38.131133	38.729430	45.000000	-45.000000	-2241.738222	-2629.053754	146.223800	180.000000	1087.730609	46.733679	22.145794	13.939985	10.208308	-45.000000	-40.316273	45.000000	-38.398043	1173.581770	-4250.347199	23.723081	-17.791741	1084.414585	34.264390	11.354003	-21.284514	
6.9500	33.983926	19.301145	29.393530	-98.646560	804.941216	12.305835	15.976622	38.090380	38.899546	45.000000	-45.000000	-2242.105506	-2628.683399	146.160603	180.000000	1087.939856	46.259296	22.260046	13.716091	10.135070	-45.000000	-40.457427	45.000000	-37.672435	1174.046172	-4250.021567	23.694682	-18.206025	1084.725780	33.440912	11.390375	-21.403787	
6.9600	34.311384	18.680966	28.466499	-103.465092	807.367132	11.984525	15.932918	38.079405	39.084072	45.000000	-45.000000	-2242.441449	-2628.284734	146.092816	180.000000	1088.169945	45.814295	22.346271	13.454662	10.044906	-45.000000	-40.633182	45.000000	-36.806708	1174.481614	-4249.692506	23.635487	-18.656174	1085.032892	32.544392	11.415708	-21.513312	
6.9700	34.691509	17.952977	27.348626	-108.546094	809.809560	11.663270	15.937017	38.066675	39.297185	45.000000	-45.000000	-2242.743201	-2627.862920	146.012131	180.000000	1088.428930	45.396592	22.382097	13.145025	9.969697	-45.000000	-40.874102	45.000000	-35.807196	1174.869084	-4249.365227	23.559089	-19.116153	1085.339161	31.569541	11.426543	-21.606562	
6.9800	35.098536	17.159888	26.115857	-113.823143	812.264804	11.344272	15.954630	38.066146	39.526122	45.000000	-45.000000	-2243.018898	-2627.433431	145.936742	180.000000	1088.701626	45.025065	22.382356	12.808407	9.903541	-45.000000	-41.137333	45.000000	-34.748845	1175.222235	-4249.039556	23.474968	-19.591260	1085.629159	30.531347	11.431514	-21.689263	
6.9900	35.508978	16.338626	24.831514	-119.244345	814.723453	11.027095	15.988515	38.061400	39.749518	45.000000	-45.000000	-2243.275796	-2627.006925	145.869658	180.000000	1088.978310	44.718552	22.348261	12.453605	9.843332	-45.000000	-41.407713	45.000000	-33.701867	1175.555050	-4248.714980	23.379327	-20.112376	1085.910025	29.442895	11.430701	-21.764548	
7.0000	35.874938	15.573807	23.640283	-124.690665	817.188371	10.707410	15.999146	38.054361	39.927824	45.000000	-45.000000	-2243.529755	-2626.602973	145.831249	180.000000	1089.228237	44.506497	22.302257	12.110389	9.775058	-45.000000	-41.615602	45.000000	-32.808748	1175.896693	-4248.383243	23.272463	-20.727844	1086.174526	28.320650	11.430403	-21.838900	
7.0100	36.191413	14.882759	22.565049	-130.152058	819.636994	10.382007	16.001486	38.023983	40.057562	45.000000	-45.000000	-2243.788121	-2626.230585	145.813977	180.000000	1089.444619	44.385472	22.240649	11.786320	9.720997	-45.000000	-41.753239	45.000000	-32.127169	1176.239868	-4248.044001	23.156229	-21.448443	1086.431289	27.156759	11.424369	-21.907074	
7.0200	36.461415	14.272538	21.603647	-135.616475	822.050148	10.049980	15.994331	37.975247	40.147424	45.000000	-45.000000	-2244.051558	-2625.902610	145.820071	180.000000	1089.622001	44.339348	22.167896	11.492897	9.693725	-45.000000	-41.818428	45.000000	-31.668248	1176.577419	-4247.701439	23.039084	-22.250058	1086.674003	25.941113	11.414692	-21.965617	
7.0300	36.693757	13.726363	20.730290	-141.070681	824.412604	9.713330	15.976226	37.925005	40.192663	45.000000	-45.000000	-2244.315098	-2625.611602	145.830301	180.000000	1089.766566	44.347621	22.091810	11.235363	9.673553	-45.000000	-41.827060	45.000000	-31.375254	1176.908590	-4247.365370	22.909035	-23.107868	1086.899999	24.687676	11.399669	-22.016010	
7.0400	36.895597	13.244230	19.936104	-146.504788	826.711947	9.378427	15.945450	37.884593	40.202909	45.000000	-45.000000	-2244.579916	-2625.364128	145.847851	180.000000	1089.877541	44.394676	22.018399	11.019953	9.668752	-45.000000	-41.783096	45.000000	-31.258719	1177.226956	-4247.039692	22.773371	-23.994560	1087.109733	23.400690	11.375605	-22.056972	
7.0500	37.071901	12.814538	19.208557	-151.911349	828.938446	9.054244	15.902477	37.856204	40.180926	45.000000	-45.000000	-2244.842462	-2625.153148	145.868098	180.000000	1089.960569	44.462661	21.952828	10.847644	9.671754	-45.000000	-41.694925	45.000000	-31.290427	1177.533526	-4246.730035	22.630449	-24.892244	1087.301604	22.104402	11.342136	-22.090188	
7.0600	37.225183	12.443030	18.550768	-157.284790	831.083883	8.750849	15.844368	37.836279	40.138608	45.000000	-45.000000	-2245.110813	-2624.985874	145.896656	180.000000	1090.013553	44.537045	21.899295	10.722348	9.701228	-45.000000	-41.557449	45.000000	-31.506876	1177.820549	-4246.436052	22.494655	-25.785035	1087.472899	20.810609	11.294847	-22.113029	
7.0700	37.359484	12.105547	17.931870	-162.617354	833.141624	8.476760	15.781901	37.815173	40.069786	45.000000	-45.000000	-2245.367436	-2624.843849	145.926871	180.000000	1090.049755	44.609384	21.858162	10.633224	9.731297	-45.000000	-41.399626	45.000000	-31.817065	1178.098510	-4246.165709	22.356356	-26.650751	1087.617371	19.562350	11.241761	-22.129798	
7.0800	37.477164	11.802350	17.347095	-167.898626	835.105703	8.238064	15.707649	37.800781	39.981217	45.000000	-45.000000	-2245.618192	-2624.728605	145.959335	180.000000	1090.069933	44.680320	21.834919	10.579270	9.771896	-45.000000	-41.218381	45.000000	-32.241116	1178.359720	-4245.917657	22.226829	-27.470484	1087.735847	18.383148	11.174593	-22.139770	
7.0900	37.578191	11.521011	16.779471	-173.114260	836.970351	8.037389	15.627881	37.783108	39.868630	45.000000	-45.000000	-2245.847752	-2624.626667	145.995954	180.000000	1090.082193	44.755136	21.831068	10.549717	9.803446	-45.000000	-41.032922	45.000000	-32.712736	1178.609360	-4245.697297	22.099311	-28.221294	1087.819198	17.311800	11.098335	-22.144868	
